# AST/ASF file generated using VICON BodyLanguage
# -----------------------------------------------
:version 1.10
:name VICON
:units
  mass 1.0
  length 0.45
  angle deg
:documentation
   .ast/.asf automatically generated from VICON data using
   VICON BodyBuilder and BodyLanguage model FoxedUp or BRILLIANT.MOD
:root
   order TX TY TZ RX RY RZ
   axis XYZ
   position 0 0 0  
   orientation 0 0 0 
:bonedata
  begin
     id 1 
     name lhipjoint
     direction 0.584852 -0.759097 0.285867 
     length 2.43633 
     axis 0 0 0  XYZ
  end
  begin
     id 2 
     name lfemur
     direction 0.34202 -0.939693 0  
     length 7.14704  
     axis 0 0 20  XYZ
    dof rx ry rz
    limits (-160.0 20.0)
           (-70.0 70.0)
           (-60.0 70.0)
  end
  begin
     id 3 
     name ltibia
     direction 0.342022 -0.939692 0   
     length 7.68483   
     axis 0 0 20   XYZ
    dof rx
    limits (-10.0 170.0)
  end
  begin
     id 4 
     name lfoot
     direction 0.0999605 -0.274639 0.956337   
     length 2.40452   
     axis -90 7.62852e-016 20   XYZ
    dof rx rz
    limits (-45.0 90.0)
           (-70.0 20.0)
  end
  begin
     id 5 
     name ltoes
     direction 1.53468e-011 -4.21881e-011 1   
     length 1.19837   
     axis -90 7.62852e-016 20   XYZ
    dof rx
    limits (-90.0 20.0)
  end
  begin
     id 6 
     name rhipjoint
     direction -0.569886 -0.769002 0.289597   
     length 2.40495  
     axis 0 0 0  XYZ 
  end
  begin
     id 7 
     name rfemur
     direction -0.34202 -0.939693 0   
     length 7.45086   
     axis 0 0 -20   XYZ
    dof rx ry rz
    limits (-160.0 20.0)
           (-70.0 70.0)
           (-70.0 60.0)
  end
  begin
     id 8 
     name rtibia
     direction -0.34202 -0.939693 0   
     length 7.76831   
     axis 0 0 -20   XYZ
    dof rx
    limits (-10.0 170.0)
 end
 begin
     id 9 
     name rfoot
     direction -0.0798572 -0.219406 0.97236   
     length 2.35911  
     axis -90 -7.62852e-016 -20   XYZ
    dof rx rz
    limits (-45.0 90.0)
           (-20.0 70.0)
  end
  begin
     id 10 
     name rtoes
     direction -1.53469e-011 -4.21728e-011 1   
     length 1.18261   
     axis -90 -7.62852e-016 -20   XYZ
    dof rx
    limits (-90.0 20.0)
  end
  begin
     id 11 
     name lowerback
     direction 0.0242088 0.999437 0.0232389   
     length 2.1561   
     axis 0 0 0   XYZ
    dof rx ry rz
    limits (-20.0 45.0)
           (-30.0 30.0)
           (-30.0 30.0)
  end
  begin
     id 12 
     name upperback
     direction -0.0356893 0.999013 -0.0264323   
     length 2.14431   
     axis 0 0 0   XYZ
    dof rx ry rz
    limits (-20.0 45.0)
           (-30.0 30.0)
           (-30.0 30.0)
  end
  begin
     id 13 
     name thorax
     direction -0.0472163 0.998194 -0.0371284   
     length 2.16169   
     axis 0 0 0   XYZ
    dof rx ry rz
    limits (-20.0 45.0)
           (-30.0 30.0)
           (-30.0 30.0)
  end
  begin
     id 14 
     name lowerneck
     direction 0.00863244 0.999921 0.00911972   
     length 1.58651   
     axis 0 0 0   XYZ
    dof rx ry rz
    limits (-20.0 45.0)
           (-30.0 30.0)
           (-30.0 30.0)
  end
  begin
     id 15 
     name upperneck
     direction 0.149523 0.979068 -0.138086   
     length 1.57486   
     axis 0 0 0   XYZ
    dof rx ry rz
    limits (-20.0 45.0)
           (-30.0 30.0)
           (-30.0 30.0)
  end
  begin
     id 16
     name head
     direction 0.0445219 0.997708 -0.0509576  
     length 1.6019  
     axis 0 0 0   XYZ
    dof rx ry rz
    limits (-20.0 45.0)
           (-30.0 30.0)
           (-30.0 30.0)
  end
  begin
     id 17 
     name lclavicle
     direction 0.911271 0.381667 -0.154644  
     length 3.80848  
     axis 0 0 0   XYZ
    dof ry rz
    limits (-20.0 10.0)
           (0.0 20.0)
  end
  begin
     id 18 
     name lhumerus
     direction 1 -4.49003e-011 2.1308e-027   
     length 5.19069   
     axis 180 -30 -90   XYZ
    dof rx ry rz
    limits (-60.0 90.0)
           (-90.0 90.0)
           (-90.0 90.0)
  end
  begin
     id 19
     name lradius
     direction 1 -4.48914e-011 4.01554e-027   
     length 3.30016   
     axis 180 -30 -90   XYZ
    dof rx
    limits (-10.0 170.0)
  end
  begin
     id 20
     name lwrist
     direction 1 -4.49003e-011 1.1934e-026   
     length 1.65008   
     axis -8.46377e-015 90 90   XYZ
    dof ry
    limits (-180.0 0.0)
 end
  begin
     id 21 
     name lhand
     direction 1 -4.49034e-011 2.38659e-026   
     length 0.707698   
     axis -1.52313e-014 90 90   XYZ
    dof rx rz
    limits (-90.0 90.0)
           (-45.0 45.0)
  end
  begin
     id 22 
     name lfingers
     direction 1 -4.48691e-011 4.77775e-026   
     length 0.570564   
     axis -3.04623e-014 90 90   XYZ
    dof rx
    limits (0.0 90.0)
  end
  begin
     id 23
     name lthumb
     direction 0.707107 -6.34832e-011 0.707107   
     length 0.819219   
     axis -90 45 -1.62303e-014   XYZ
    dof rx rz
    limits (-45.0 45.0)
           (-45.0 45.0)
  end
  begin
     id 24 
     name rclavicle
     direction -0.815579 0.573708 -0.0754329   
     length 3.54371  
     axis 0 0 0   XYZ 
    dof ry rz
    limits (-10.0 20.0)
           (-20.0 0.0)
  end
  begin
     id 25 
     name rhumerus
     direction -1 -4.48956e-011 3.05351e-028  
     length 5.23924   
     axis 180 30 90   XYZ
    dof rx ry rz
    limits (-90.0 60.0)
           (-90.0 90.0)
           (-90.0 90.0)
  end
  begin
     id 26 
     name rradius
     direction -1 -4.49013e-011 3.53849e-027   
     length 3.32953   
     axis 180 30 90   XYZ
    dof rx
    limits (-10.0 170.0)
  end
  begin
     id 27 
     name rwrist
     direction -1 -4.48901e-011 1.19374e-026   
     length 1.66477   
     axis -8.46377e-015 -90 -90   XYZ
    dof ry
    limits (-180.0 0.0)
  end
  begin
     id 28
     name rhand
     direction -1 -4.48877e-011 2.38764e-026   
     length 0.607414   
     axis -1.52313e-014 -90 -90   XYZ
    dof rx rz
    limits (-90.0 90.0)
           (-45.0 45.0)
  end
  begin
     id 29
     name rfingers
     direction -1 -4.48882e-011 4.77521e-026   
     length 0.489712   
     axis -3.04623e-014 -90 -90   XYZ
    dof rx
    limits (0.0 90.0)
  end
  begin
     id 30
     name rthumb
     direction -0.707107 -6.34974e-011 0.707107   
     length 0.703132   
     axis -90 -45 1.62303e-014   XYZ
    dof rx rz
    limits (-45.0 45.0)
           (-45.0 45.0)
  end
:hierarchy
  begin
    root lhipjoint rhipjoint lowerback
    lhipjoint lfemur
    lfemur ltibia
    ltibia lfoot
    lfoot ltoes
    rhipjoint rfemur
    rfemur rtibia
    rtibia rfoot
    rfoot rtoes
    lowerback upperback
    upperback thorax
    thorax lowerneck lclavicle rclavicle
    lowerneck upperneck
    upperneck head
    lclavicle lhumerus
    lhumerus lradius
    lradius lwrist
    lwrist lhand lthumb
    lhand lfingers
    rclavicle rhumerus
    rhumerus rradius
    rradius rwrist
    rwrist rhand rthumb
    rhand rfingers
  end

#!OML:ASF E:\VariousWalksJay\Project 1\Capture day 1\Session 1\Actor2.ASF
:FULLY-SPECIFIED
:DEGREES
616
root 5.59726 17.203 1.95937 -13.1746 16.8735 -15.337
lowerback -0.0318535 -7.70949 5.13624
upperback -4.29878 -10.1459 0.275838
thorax -5.29551 -5.23309 -1.99382
lowerneck -12.8124 -5.42437 -3.78149
upperneck 25.2845 -9.48835 9.27881
head 10.9128 -3.68792 2.69689
rclavicle -1.43125e-014 -3.18055e-014
rhumerus 2.53087 -1.76749 1.75248
rradius 126.331
rwrist -40.4715
rhand 39.4314 -24.0125
rfingers 7.12502
rthumb 61.9222 -35.603
lclavicle -1.43125e-014 -3.18055e-014
lhumerus 29.6964 -12.3835 22.3252
lradius 117.04
lwrist 36.3842
lhand 31.5139 9.84273
lfingers 7.12502
lthumb 55.0626 27.936
rfemur -85.6207 -19.2844 23.2263
rtibia 106.942
rfoot -22.1435 -9.63736
rtoes -18.1804
lfemur 31.1703 4.1469 -3.98274
ltibia -5.08889e-014
lfoot -33.7359 27.0603
ltoes -10.2824
617
root 5.59427 17.2201 1.9305 -13.5794 17.204 -15.7982
lowerback -0.110704 -7.74174 5.10383
upperback -4.36151 -10.1915 0.274753
thorax -5.31555 -5.25542 -1.98043
lowerneck -12.9121 -5.53325 -3.92662
upperneck 25.2738 -9.66051 9.45626
head 10.961 -3.757 2.75835
rclavicle -1.76123e-013 -4.05521e-014
rhumerus 2.74203 -3.474 1.55645
rradius 126.749
rwrist -40.6656
rhand 39.1783 -23.9933
rfingers 7.12502
rthumb 61.7106 -35.843
lclavicle -1.76123e-013 -4.05521e-014
lhumerus 30.7456 -11.6 22.2552
lradius 117.104
lwrist 35.9319
lhand 31.3848 9.55658
lfingers 7.12502
lthumb 54.9475 27.7332
rfemur -85.4268 -19.2425 22.7771
rtibia 105.72
rfoot -22.3982 -10.0235
rtoes -18.3347
lfemur 31.2639 3.7904 -3.55687
ltibia -1.59028e-014
lfoot -34.1655 26.6467
ltoes -9.9023
618
root 5.59242 17.2358 1.90233 -13.9606 17.4922 -16.2199
lowerback -0.190797 -7.76652 5.06198
upperback -4.41833 -10.2277 0.266935
thorax -5.32735 -5.27272 -1.97049
lowerneck -13.0086 -5.63048 -4.05825
upperneck 25.2919 -9.81703 9.61444
head 11.0169 -3.819 2.81317
rclavicle -3.26007e-014 1.27222e-014
rhumerus 2.9781 -5.0639 1.37071
rradius 127.138
rwrist -40.798
rhand 38.9128 -23.9569
rfingers 7.12502
rthumb 61.488 -36.074
lclavicle -3.26007e-014 1.27222e-014
lhumerus 31.7027 -10.8188 22.2347
lradius 117.209
lwrist 35.4652
lhand 31.2689 9.32226
lfingers 7.12502
lthumb 54.844 27.5732
rfemur -85.168 -19.1691 22.3185
rtibia 104.461
rfoot -22.6355 -10.3997
rtoes -18.4937
lfemur 31.3543 3.4829 -3.16243
ltibia -9.54166e-015
lfoot -34.5434 26.2571
ltoes -9.51729
619
root 5.59172 17.2504 1.87501 -14.3188 17.7507 -16.5983
lowerback -0.271768 -7.78668 5.00711
upperback -4.46959 -10.2586 0.249799
thorax -5.33164 -5.28689 -1.96436
lowerneck -13.1005 -5.7166 -4.17675
upperneck 25.3294 -9.95834 9.75592
head 11.0768 -3.87421 2.86224
rclavicle 9.74045e-014 4.85035e-014
rhumerus 3.23245 -6.52457 1.20904
rradius 127.498
rwrist -40.8977
rhand 38.659 -23.9221
rfingers 7.12502
rthumb 61.2745 -36.2909
lclavicle 9.74045e-014 4.85035e-014
lhumerus 32.5705 -10.0458 22.2557
lradius 117.356
lwrist 35.0092
lhand 31.1641 9.13379
lfingers 7.12502
lthumb 54.7504 27.4515
rfemur -84.8523 -19.0839 21.8527
rtibia 103.188
rfoot -22.8531 -10.7421
rtoes -18.6524
lfemur 31.4402 3.21424 -2.80627
ltibia 5.725e-014
lfoot -34.8689 25.8984
ltoes -9.14351
620
root 5.59215 17.264 1.84865 -14.656 17.9907 -16.9323
lowerback -0.35201 -7.80485 4.93717
upperback -4.51525 -10.2875 0.221715
thorax -5.32953 -5.29963 -1.96212
lowerneck -13.1856 -5.79316 -4.2844
upperneck 25.3756 -10.086 9.88453
head 11.1366 -3.92349 2.90707
rclavicle 9.74045e-014 1.51076e-014
rhumerus 3.49727 -7.84881 1.08174
rradius 127.826
rwrist -40.9921
rhand 38.4309 -23.9025
rfingers 7.12502
rthumb 61.0822 -36.4942
lclavicle 9.74045e-014 1.51076e-014
lhumerus 33.3523 -9.28754 22.3102
lradius 117.544
lwrist 34.5787
lhand 31.0589 8.97848
lfingers 7.12502
lthumb 54.6563 27.3629
rfemur -84.486 -19.0027 21.3822
rtibia 101.922
rfoot -23.0475 -11.0317
rtoes -18.8165
lfemur 31.5212 2.97477 -2.49281
ltibia 3.49861e-014
lfoot -35.1414 25.5761
ltoes -8.79651
621
root 5.59369 17.2767 1.8233 -14.9751 18.2209 -17.2229
lowerback -0.429192 -7.82297 4.85226
upperback -4.55473 -10.3171 0.182088
thorax -5.32202 -5.31218 -1.96393
lowerneck -13.2637 -5.86247 -4.3835
upperneck 25.4216 -10.2024 10.0031
head 11.1932 -3.96821 2.94856
rclavicle 3.33958e-014 1.74931e-014
rhumerus 3.76415 -9.0346 0.995849
rradius 128.122
rwrist -41.1007
rhand 38.2327 -23.9045
rfingers 7.12502
rthumb 60.9147 -36.6873
lclavicle 3.33958e-014 1.74931e-014
lhumerus 34.052 -8.54926 22.3893
lradius 117.772
lwrist 34.1782
lhand 30.9364 8.84003
lfingers 7.12502
lthumb 54.5468 27.3015
rfemur -84.0742 -18.9363 20.9097
rtibia 100.682
rfoot -23.2153 -11.2571
rtoes -18.9964
lfemur 31.5974 2.7565 -2.22357
ltibia -3.18055e-015
lfoot -35.3613 25.2942
ltoes -8.49071
622
root 5.59633 17.2889 1.79899 -15.2791 18.4465 -17.474
lowerback -0.500969 -7.84197 4.75516
upperback -4.58758 -10.3482 0.131721
thorax -5.31042 -5.32513 -1.97002
lowerneck -13.334 -5.92722 -4.47771
upperneck 25.4597 -10.3107 10.115
head 11.2443 -4.00997 2.98807
rclavicle 3.69739e-014 2.70347e-014
rhumerus 4.02488 -10.084 0.955411
rradius 128.386
rwrist -41.2334
rhand 38.0614 -23.9271
rfingers 7.12502
rthumb 60.7696 -36.8733
lclavicle 3.69739e-014 2.70347e-014
lhumerus 34.6737 -7.83553 22.4854
lradius 118.035
lwrist 33.8039
lhand 30.7789 8.70357
lfingers 7.12502
lthumb 54.4059 27.2634
rfemur -83.6217 -18.8898 20.4401
rtibia 99.4843
rfoot -23.3553 -11.4154
rtoes -19.2011
lfemur 31.6695 2.55397 -1.99632
ltibia 8.26944e-014
lfoot -35.5296 25.0548
ltoes -8.23824
623
root 5.60002 17.3004 1.77573 -15.5708 18.6689 -17.6913
lowerback -0.565634 -7.86191 4.65043
upperback -4.61349 -10.3808 0.0725288
thorax -5.29586 -5.33855 -1.98059
lowerneck -13.3974 -5.98957 -4.56977
upperneck 25.4853 -10.4134 10.2227
head 11.2887 -4.05004 3.02645
rclavicle 1.19271e-015 -2.54444e-014
rhumerus 4.27249 -11.0023 0.961332
rradius 128.62
rwrist -41.3894
rhand 37.9078 -23.9642
rfingers 7.12502
rthumb 60.6393 -37.0553
lclavicle 1.19271e-015 -2.54444e-014
lhumerus 35.2219 -7.14973 22.5915
lradius 118.33
lwrist 33.445
lhand 30.575 8.55615
lfingers 7.12502
lthumb 54.2232 27.2421
rfemur -83.1344 -18.8632 19.9796
rtibia 98.3411
rfoot -23.4666 -11.5126
rtoes -19.4411
lfemur 31.7386 2.36462 -1.80604
ltibia -6.36111e-015
lfoot -35.6491 24.8568
ltoes -8.04647
624
root 5.6047 17.3113 1.75353 -15.8519 18.8864 -17.8816
lowerback -0.62256 -7.88204 4.54424
upperback -4.6328 -10.4135 0.00731921
thorax -5.27955 -5.35201 -1.99597
lowerneck -13.4543 -6.05089 -4.6616
upperneck 25.4967 -10.5121 10.3275
head 11.326 -4.08924 3.06423
rclavicle 7.4743e-014 -1.11319e-014
rhumerus 4.50184 -11.797 1.01173
rradius 128.824
rwrist -41.5585
rhand 37.762 -24.0052
rfingers 7.12502
rthumb 60.5155 -37.2328
lclavicle 7.4743e-014 -1.11319e-014
lhumerus 35.7009 -6.49311 22.7024
lradius 118.65
lwrist 33.0905
lhand 30.324 8.39221
lfingers 7.12502
lthumb 53.998 27.2316
rfemur -82.6195 -18.8521 19.5362
rtibia 97.2643
rfoot -23.5524 -11.5605
rtoes -19.7132
lfemur 31.8058 2.18857 -1.64514
ltibia 3.49861e-014
lfoot -35.7236 24.6968
ltoes -7.91785
